<svg width="24" height="25" viewBox="0 0 24 25" fill="none" xmlns="http://www.w3.org/2000/svg">
<path id="Icon" fill-rule="evenodd" clip-rule="evenodd" d="M14.5258 0.550258C14.9812 0.660688 15.3628 0.944362 15.5735 1.32919C16.3679 2.77987 16.9608 3.66032 17.5573 4.37419C18.1611 5.09678 18.7998 5.68833 19.7714 6.57541C22.0166 8.62537 23.1397 11.3152 23.1396 14C23.1396 16.6849 22.0166 19.3747 19.7714 21.4246C15.2803 25.5251 7.99895 25.5251 3.50792 21.4246C1.26273 19.3747 0.139652 16.6849 0.139648 14C0.139644 11.3152 1.26272 8.62537 3.50792 6.57541C3.97777 6.14641 4.6844 6.01808 5.29829 6.25025C5.91218 6.48242 6.31245 7.02937 6.31245 7.63607C6.31245 9.31579 6.42733 10.5957 6.96541 11.6165C7.26128 12.1779 7.72283 12.7267 8.51829 13.2164C8.70827 11.6253 9.05628 9.68671 9.52652 7.84665C9.89675 6.39792 10.3572 4.95159 10.9053 3.74549C11.1794 3.14222 11.4894 2.56781 11.8415 2.07186C12.1842 1.58911 12.6245 1.09787 13.1928 0.751932C13.5849 0.513274 14.0703 0.439828 14.5258 0.550258ZM15.1247 20.182C13.1999 21.9393 10.0793 21.9393 8.15462 20.182C7.19226 19.3033 6.71108 18.1516 6.71108 17C6.71108 17 8.15462 17.75 10.8183 17.75C10.8183 16.25 11.6397 11.75 12.8719 11C13.6933 12.5 14.1623 12.9393 15.1247 13.818C16.087 14.6967 16.5682 15.8483 16.5682 17C16.5682 18.1516 16.087 19.3033 15.1247 20.182Z" fill="#FE9600"/>
</svg>
