<?xml version="1.0" encoding="UTF-8"?>
<svg id="Capa_2" data-name="Capa 2" xmlns="http://www.w3.org/2000/svg" viewBox="0 0 200.98 191.1">
  <g id="Calque_1" data-name="Calque 1">
    <g>
      <path d="M30.99,141.29c-6.51-11.04-10.05-23.69-10.22-36.58-.28-19.8,7.18-38.52,20.98-52.72,2.06-2.12,5-3.07,8.02-2.51,1.04.19,2.04.58,2.93,1.15,4.12,2.62,5.49,7.9,2.71,12.6-3.91,3.75-7.03,8.21-9.86,12.86-17.2,28.29.79,56.52.79,56.52,10.33,17.3,29.24,27.87,49.34,27.59,4.93-.07,9.84-.79,14.61-2.14.74-.21,1.51-.32,2.28-.33,3.97-.06,7.51,2.58,8.59,6.41,1.09,3.86-.49,8.06-4.5,10.41-6.72,2.06-13.71,3.15-20.75,3.25-6.49.09-12.95-.67-19.2-2.25,0,0-28.93-6.27-45.72-34.26" style="fill:#d61217;stroke-width:0px;" />
      <path d="M35.45,69.79c1.7,0,3.34.03,4.91.08,1.58.05,3.08.2,4.51.46,1.43.25,2.78.67,4.04,1.25,1.26.58,2.4,1.38,3.42,2.39,1.21,1.16,2.15,2.62,2.8,4.36.66,1.75.98,3.63.98,5.66,0,1.21-.17,2.43-.51,3.64-.34,1.21-.85,2.33-1.53,3.34-.63.91-1.3,1.62-2,2.13-.7.51-1.38.91-2.04,1.21-.65.3-1.29.51-1.89.61-.61.1-1.13.18-1.56.23.73.05,1.49.17,2.29.34.8.18,1.76.62,2.88,1.33,1.31.81,2.35,1.76,3.13,2.85.78,1.09,1.37,2.19,1.78,3.3.41,1.11.68,2.19.8,3.23.12,1.04.18,1.94.18,2.69,0,1.06-.1,2.14-.29,3.23-.19,1.09-.51,2.14-.95,3.15-.87,1.97-1.99,3.5-3.35,4.59-1.36,1.09-2.81,1.9-4.37,2.43-1.55.53-3.12.85-4.7.95-1.58.1-3,.15-4.26.15H13.03v-53.59h22.42ZM25.99,81.02v9.49h10.7c.58,0,1.25-.04,2-.11.75-.08,1.47-.25,2.15-.53.68-.28,1.25-.72,1.71-1.33.46-.61.69-1.47.69-2.58,0-1.21-.24-2.15-.73-2.81-.49-.66-1.09-1.15-1.82-1.48-.73-.33-1.48-.52-2.26-.57-.78-.05-1.46-.08-2.04-.08h-10.41ZM25.99,101.14v11.31h11.28c.92,0,1.9-.08,2.95-.23,1.04-.15,1.95-.58,2.73-1.29,1.12-1.01,1.67-2.4,1.67-4.17,0-1.06-.21-1.95-.62-2.66-.41-.71-.89-1.26-1.42-1.67-.83-.61-1.75-.97-2.77-1.1-1.02-.13-1.97-.19-2.84-.19h-10.99Z" style="stroke-width:0px;fill:#000;" />
      <path d="M92.67,94.23c.86-1.2,1.72-2.46,2.58-3.76.86-1.31,1.67-2.56,2.42-3.76,1.07-.65,2.2-.98,3.39-.98.97,0,2.1.27,3.39.82,1.19.77,2.04,1.99,2.59,3.68.54,1.69.59,3.19.16,4.5-.69,2.37-1.46,4.65-2.32,6.83-.41,1.09-.81,2.18-1.22,3.27-.26.81-.56,1.67-.9,2.57-.27.71-.51,1.39-.73,2.05-.11.22-.19.43-.24.65-.06.22-.14.44-.24.65l4.2-.98c.21-.11.43-.16.65-.16.75,0,1.4.27,1.94.82.75.65,1.02,1.53.81,2.62-.75,2.51-1.91,4.17-3.47,4.99-1.56.82-3.53,1.34-5.89,1.55-.22,0-.4.03-.57.08-.16.06-.35.08-.56.08-1.83,5.78-3.45,11.67-4.84,17.67-.43,1.64-.81,3.3-1.13,4.99-.32,1.69-.59,3.41-.81,5.16-.22,1.74-.73,2.89-1.53,3.44-.81.54-1.53.87-2.18.98h-1.05c-.38,0-.73-.06-1.05-.16-2.48-.33-4.23-1.34-5.25-3.03-1.03-1.69-1.8-3.19-2.34-4.5,0-.11-.03-.19-.08-.25-.06-.05-.08-.13-.08-.25v-1.15c.54-4.14,1.29-8.2,2.26-12.19.97-3.98,2.15-7.88,3.55-11.7h-.16c.21-.22.38-.43.49-.65-.11-.22-1.03-.33-2.75-.33s-3.61.06-5.65.16c-3.23.11-6.38.22-9.45.33-3.07.11-5.36.27-6.86.49-2.58-.11-4.49-.46-5.73-1.06-1.24-.6-2.1-1.31-2.58-2.13-.48-.82-.67-1.66-.57-2.54.11-.87.32-1.64.65-2.29.11-.22.19-.35.24-.41.05-.05.13-.19.24-.41.97-.98,1.96-1.94,2.99-2.86,1.02-.93,2.02-1.83,2.99-2.7.43-.43.86-.82,1.29-1.15.43-.33.86-.71,1.29-1.15.86-.87,1.78-1.66,2.75-2.37.97-.71,1.88-1.5,2.75-2.37,2.15-1.85,4.2-3.63,6.14-5.32,1.94-1.69,3.71-3.52,5.33-5.48,3.12-3.71,6.24-7.79,9.37-12.27,3.12-4.47,5.65-9.38,7.59-14.72.11-.33.32-.82.65-1.47.11-.11.19-.27.24-.49.06-.22.19-.43.4-.65.43-.98,1.24-1.47,2.42-1.47h.16c1.29.22,2.1.88,2.42,1.96.32,1.31.57,3.63.73,6.95.16,3.33-.59,7.31-2.26,11.94-1.67,4.64-4.68,9.71-9.04,15.22-4.36,5.51-10.96,11.04-19.78,16.61l12.76.82h2.1l1.78-3.27,5.65-11.45Z" style="fill:#d61217;stroke-width:0px;" />
      <text transform="translate(103.07 121.67)" style="fill:#1d1d1b;font-family:AGOldFace-Bold, AGOldFace;font-size:74px;font-weight:700;" ><tspan x="0" y="0">G</tspan></text>
      <path d="M143.31,75.81c-10.09-17.44-28.85-28.28-48.95-28.28-4.93,0-9.85.65-14.64,1.94-.75.2-1.52.3-2.28.3-3.97,0-7.47-2.68-8.5-6.53-1.04-3.88.61-8.05,4.65-10.34,6.74-1.96,13.75-2.96,20.79-2.96,6.49,0,12.94.85,19.16,2.52.52.14,1.06.21,1.59.21,2.78,0,5.23-1.88,5.95-4.56.76-2.82-.5-5.8-3.55-7.42l-1.37-.25h-.05c-7.13-1.86-14.47-2.8-21.8-2.8-23.24,0-45.98,9.62-62.12,26.35-.02.02-.04.03-.06.05-6.97,4.17-15.29-.83-14.22-10.58,10.31-11.14,22.64-19.74,36.58-25.53C67.2,2.67,80.6,0,94.34,0c7.49,0,15.03.82,22.39,2.43,22.81,5,43.53,17.78,58.36,35.99l4.54,5.57c6.17,7.58,9.65,17.04,9.56,26.81-.03,3.42-.29,6.98-.79,10.68-.33,1.42-4.56,2.72-4.98,4.1-.09,2.45,6.89,15.33,8.7,18.9,2.64,5.2,5.64,9.53,7.34,12.06,3.17,4.72,1.06,7.23-3.31,8.28-1.49.37-3.25.56-5.15.61-1.12.03-2.09.2-2.91.49-4.71,1.62-5,6.89-2.98,10.68,2.38,4.45,3.44,9.62-5.69,11.03,3.38,2.92,5.66,7.88,0,11.08-1.21.69-2.22,1.29-3.05,1.88-2.06,1.48-3.01,2.85-3.2,5.1-.1,1.08,0,2.36.21,3.95.14,1.01.2,2.34.11,3.82,0,.06,0,.11-.01.17,0,.04,0,.08,0,.11-1.04,8.56-20.54,10.16-34.95,4.62,25.3-15.1,42.29-42.74,42.29-74.29,0-15.18-4-30.13-11.58-43.22-1.15-1.99-2.96-3.09-5.08-3.09-2.31,0-4.61,1.32-5.73,3.28-.75,1.32-1.3,3.49.37,6.32,6.36,11.13,9.71,23.82,9.71,36.71,0,19.8-7.71,38.42-21.71,52.42-2.09,2.09-5.05,3-8.06,2.4-1.03-.21-2.03-.61-2.91-1.19-4.09-2.68-5.38-7.97-2.54-12.64,3.96-3.7,7.14-8.11,10.04-12.72,17.59-28.05,0-56.53,0-56.53Z" style="fill:#d61217;stroke-width:0px;" />
      <path d="M71.4,190.6C23.45,180.81-7.48,134,2.31,86.05" style="fill:none;stroke:#d61217;stroke-linecap:round;stroke-linejoin:round;" />
    </g>
  </g>
</svg> 