<svg width="24" height="24" viewBox="0 0 24 24" fill="none" xmlns="http://www.w3.org/2000/svg">
<g id="mdi:bell">
<path id="Vector" d="M20.9985 19V20H2.99854V19L4.99854 17V11C4.99854 7.9 7.02853 5.17 9.99854 4.29V4C9.99854 3.46957 10.2092 2.96086 10.5843 2.58579C10.9594 2.21071 11.4681 2 11.9985 2C12.529 2 13.0377 2.21071 13.4127 2.58579C13.7878 2.96086 13.9985 3.46957 13.9985 4V4.29C16.9685 5.17 18.9985 7.9 18.9985 11V17L20.9985 19ZM13.9985 21C13.9985 21.5304 13.7878 22.0391 13.4127 22.4142C13.0377 22.7893 12.529 23 11.9985 23C11.4681 23 10.9594 22.7893 10.5843 22.4142C10.2092 22.0391 9.99854 21.5304 9.99854 21" fill="white"/>
</g>
</svg>
